<svg xmlns="http://www.w3.org/2000/svg" xmlns:xlink="http://www.w3.org/1999/xlink" width="60" zoomAndPan="magnify" viewBox="0 0 45 44.999999" height="60" preserveAspectRatio="xMidYMid meet" version="1.0"><defs><g/></defs><path fill="#00bf63" d="M 45 22.5 C 45 23.238281 44.964844 23.972656 44.890625 24.707031 C 44.820312 25.4375 44.710938 26.167969 44.566406 26.890625 C 44.425781 27.613281 44.246094 28.328125 44.03125 29.03125 C 43.816406 29.738281 43.570312 30.429688 43.289062 31.109375 C 43.003906 31.792969 42.691406 32.457031 42.34375 33.105469 C 41.996094 33.757812 41.617188 34.386719 41.207031 35 C 40.796875 35.613281 40.359375 36.203125 39.894531 36.773438 C 39.425781 37.34375 38.929688 37.890625 38.410156 38.410156 C 37.890625 38.929688 37.34375 39.425781 36.773438 39.894531 C 36.203125 40.359375 35.613281 40.796875 35 41.207031 C 34.386719 41.617188 33.757812 41.996094 33.105469 42.34375 C 32.457031 42.691406 31.792969 43.003906 31.109375 43.289062 C 30.429688 43.570312 29.738281 43.816406 29.03125 44.03125 C 28.328125 44.246094 27.613281 44.425781 26.890625 44.566406 C 26.167969 44.710938 25.4375 44.820312 24.707031 44.890625 C 23.972656 44.964844 23.238281 45 22.5 45 C 21.761719 45 21.027344 44.964844 20.292969 44.890625 C 19.5625 44.820312 18.832031 44.710938 18.109375 44.566406 C 17.386719 44.425781 16.671875 44.246094 15.96875 44.03125 C 15.261719 43.816406 14.570312 43.570312 13.890625 43.289062 C 13.207031 43.003906 12.542969 42.691406 11.894531 42.34375 C 11.242188 41.996094 10.613281 41.617188 10 41.207031 C 9.386719 40.796875 8.796875 40.359375 8.226562 39.894531 C 7.65625 39.425781 7.109375 38.929688 6.589844 38.410156 C 6.070312 37.890625 5.574219 37.34375 5.105469 36.773438 C 4.640625 36.203125 4.203125 35.613281 3.792969 35 C 3.382812 34.386719 3.003906 33.757812 2.65625 33.105469 C 2.308594 32.457031 1.996094 31.792969 1.710938 31.109375 C 1.429688 30.429688 1.183594 29.738281 0.96875 29.03125 C 0.753906 28.328125 0.574219 27.613281 0.433594 26.890625 C 0.289062 26.167969 0.179688 25.4375 0.109375 24.707031 C 0.0351562 23.972656 0 23.238281 0 22.5 C 0 21.761719 0.0351562 21.027344 0.109375 20.292969 C 0.179688 19.5625 0.289062 18.832031 0.433594 18.109375 C 0.574219 17.386719 0.753906 16.671875 0.96875 15.96875 C 1.183594 15.261719 1.429688 14.570312 1.710938 13.890625 C 1.996094 13.207031 2.308594 12.542969 2.65625 11.894531 C 3.003906 11.242188 3.382812 10.613281 3.792969 10 C 4.203125 9.386719 4.640625 8.796875 5.105469 8.226562 C 5.574219 7.65625 6.070312 7.109375 6.589844 6.589844 C 7.109375 6.070312 7.65625 5.574219 8.226562 5.105469 C 8.796875 4.640625 9.386719 4.203125 10 3.792969 C 10.613281 3.382812 11.242188 3.003906 11.894531 2.65625 C 12.542969 2.308594 13.207031 1.996094 13.890625 1.710938 C 14.570312 1.429688 15.261719 1.183594 15.96875 0.96875 C 16.671875 0.753906 17.386719 0.574219 18.109375 0.433594 C 18.832031 0.289062 19.5625 0.179688 20.292969 0.109375 C 21.027344 0.0351562 21.761719 0 22.5 0 C 23.238281 0 23.972656 0.0351562 24.707031 0.109375 C 25.4375 0.179688 26.167969 0.289062 26.890625 0.433594 C 27.613281 0.574219 28.328125 0.753906 29.03125 0.96875 C 29.738281 1.183594 30.429688 1.429688 31.109375 1.710938 C 31.792969 1.996094 32.457031 2.308594 33.105469 2.65625 C 33.757812 3.003906 34.386719 3.382812 35 3.792969 C 35.613281 4.203125 36.203125 4.640625 36.773438 5.105469 C 37.34375 5.574219 37.890625 6.070312 38.410156 6.589844 C 38.929688 7.109375 39.425781 7.65625 39.894531 8.226562 C 40.359375 8.796875 40.796875 9.386719 41.207031 10 C 41.617188 10.613281 41.996094 11.242188 42.34375 11.894531 C 42.691406 12.542969 43.003906 13.207031 43.289062 13.890625 C 43.570312 14.570312 43.816406 15.261719 44.03125 15.96875 C 44.246094 16.671875 44.425781 17.386719 44.566406 18.109375 C 44.710938 18.832031 44.820312 19.5625 44.890625 20.292969 C 44.964844 21.027344 45 21.761719 45 22.5 Z M 45 22.5 " fill-opacity="1" fill-rule="nonzero"/><path fill="#ffffff" d="M 34.734375 26.804688 C 33.703125 23.945312 30.730469 21.515625 27.046875 20.570312 C 25.941406 20.289062 24.816406 20.148438 23.710938 20.148438 C 23.691406 20.148438 23.664062 20.15625 23.644531 20.15625 C 23.625 20.15625 23.605469 20.15625 23.578125 20.15625 C 21.675781 20.175781 19.855469 20.617188 18.375 21.441406 C 19.164062 21.300781 19.472656 21.570312 19.621094 21.964844 C 21.796875 21.019531 24.421875 20.8125 26.792969 21.414062 C 29.773438 22.179688 33.019531 24.300781 33.9375 27.394531 C 34.21875 27.207031 34.480469 27.007812 34.734375 26.804688 Z M 34.734375 26.804688 " fill-opacity="1" fill-rule="nonzero"/><path fill="#ffffff" d="M 33.039062 27.917969 C 32.335938 25.078125 29.230469 23.0625 26.539062 22.378906 C 24.375 21.824219 21.957031 22.011719 19.988281 22.894531 C 20.089844 23.015625 20.242188 23.128906 20.464844 23.257812 C 20.558594 23.304688 20.652344 23.398438 20.757812 23.511719 C 22.398438 22.855469 24.441406 22.753906 26.289062 23.222656 C 27.929688 23.644531 29.429688 24.449219 30.507812 25.5 C 31.386719 26.363281 31.960938 27.355469 32.15625 28.359375 C 32.457031 28.21875 32.757812 28.070312 33.039062 27.917969 Z M 33.039062 27.917969 " fill-opacity="1" fill-rule="nonzero"/><path fill="#ffffff" d="M 31.199219 28.742188 C 30.945312 26.792969 28.847656 24.910156 26.035156 24.1875 C 24.46875 23.785156 22.761719 23.851562 21.347656 24.347656 C 21.449219 24.523438 21.523438 24.695312 21.554688 24.796875 C 21.5625 24.816406 21.570312 24.863281 21.609375 25.117188 C 22.414062 24.582031 23.464844 24.394531 24.609375 24.589844 C 25.753906 24.796875 26.914062 25.367188 27.898438 26.210938 C 28.835938 27.019531 29.558594 28.023438 30.007812 29.136719 C 30.414062 29.023438 30.804688 28.894531 31.199219 28.742188 Z M 31.199219 28.742188 " fill-opacity="1" fill-rule="nonzero"/><path fill="#ffffff" d="M 19.601562 30.148438 C 19.734375 29.914062 19.921875 29.699219 20.175781 29.492188 C 20.183594 29.484375 20.183594 29.484375 20.195312 29.476562 C 20.371094 29.335938 20.585938 29.195312 20.832031 29.054688 C 20.933594 28.996094 21.007812 28.902344 21.066406 28.78125 C 21.007812 28.21875 20.644531 25.367188 20.585938 25.078125 C 20.550781 24.957031 20.371094 24.65625 20.203125 24.421875 C 20.195312 24.414062 20.183594 24.402344 20.183594 24.394531 C 20.101562 24.273438 20.015625 24.167969 19.960938 24.132812 C 19.199219 23.710938 18.929688 23.210938 18.804688 22.820312 L 18.804688 22.808594 C 18.769531 22.679688 18.742188 22.566406 18.722656 22.472656 C 18.722656 22.453125 18.710938 22.425781 18.710938 22.40625 C 18.664062 22.40625 18.601562 22.414062 18.496094 22.433594 C 17.804688 22.574219 17.335938 22.226562 16.988281 21.851562 C 16.976562 21.835938 16.960938 21.824219 16.949219 21.804688 C 16.855469 21.703125 16.773438 21.601562 16.695312 21.496094 C 16.339844 21.046875 16.085938 20.773438 15.683594 20.726562 C 15.039062 20.664062 14.035156 21.1875 12.703125 22.304688 C 12.488281 22.480469 12.488281 22.546875 12.46875 22.753906 C 12.421875 23.304688 12.28125 23.820312 10.976562 24.554688 C 10.59375 24.769531 10.59375 24.835938 10.882812 25.519531 C 11.089844 26.015625 11.371094 26.679688 11.210938 27.46875 C 13.640625 29.023438 17.054688 29.804688 19.601562 30.148438 Z M 19.480469 26.128906 C 19.753906 26.101562 20.007812 26.296875 20.035156 26.570312 C 20.0625 26.839844 19.867188 27.09375 19.59375 27.121094 C 19.378906 27.148438 19.03125 27.226562 18.742188 27.355469 C 18.449219 27.488281 18.207031 27.675781 18.207031 27.898438 C 18.207031 28.171875 17.980469 28.398438 17.699219 28.398438 C 17.417969 28.398438 17.203125 28.171875 17.203125 27.890625 C 17.203125 26.699219 18.636719 26.222656 19.480469 26.128906 Z M 16.539062 25.960938 C 16.566406 26.230469 16.367188 26.484375 16.097656 26.511719 C 15.664062 26.558594 14.710938 26.832031 14.710938 27.300781 C 14.710938 27.570312 14.484375 27.796875 14.203125 27.796875 C 13.921875 27.796875 13.707031 27.570312 13.707031 27.289062 C 13.714844 26.089844 15.148438 25.613281 15.992188 25.519531 C 16.257812 25.492188 16.507812 25.6875 16.539062 25.960938 Z M 15.636719 22.246094 C 15.910156 22.21875 16.164062 22.414062 16.191406 22.6875 C 16.21875 22.960938 16.023438 23.210938 15.75 23.242188 C 15.320312 23.289062 14.363281 23.558594 14.363281 24.027344 C 14.363281 24.300781 14.136719 24.523438 13.855469 24.523438 C 13.574219 24.523438 13.359375 24.300781 13.359375 24.019531 C 13.367188 22.828125 14.804688 22.351562 15.636719 22.246094 Z M 15.636719 22.246094 " fill-opacity="1" fill-rule="nonzero"/><path fill="#ffffff" d="M 22.5 30.382812 C 23.679688 30.382812 26.335938 30.148438 29.042969 29.429688 C 28.097656 27.1875 26.054688 25.875 24.441406 25.585938 C 23.785156 25.472656 22.59375 25.414062 21.777344 26.289062 C 21.796875 26.464844 21.824219 26.652344 21.851562 26.878906 C 22.105469 28.828125 22.097656 28.855469 22.058594 28.96875 C 21.9375 29.390625 21.695312 29.71875 21.335938 29.914062 C 21.226562 29.980469 21.121094 30.046875 21.039062 30.101562 C 21.046875 30.167969 21.054688 30.242188 21.066406 30.308594 C 21.648438 30.367188 22.144531 30.382812 22.5 30.382812 Z M 22.5 30.382812 " fill-opacity="1" fill-rule="nonzero"/><path fill="#ffffff" d="M 33.882812 28.585938 C 33.882812 28.59375 33.882812 28.59375 33.882812 28.585938 C 33.863281 28.59375 33.84375 28.613281 33.824219 28.621094 C 33.253906 28.949219 32.625 29.25 31.941406 29.53125 C 31.941406 29.53125 31.929688 29.53125 31.929688 29.539062 C 31.714844 29.625 31.5 29.710938 31.285156 29.792969 C 30.835938 29.960938 30.367188 30.113281 29.898438 30.242188 L 29.886719 30.242188 C 29.886719 30.242188 29.878906 30.242188 29.878906 30.253906 C 29.867188 30.253906 29.851562 30.261719 29.839844 30.261719 L 29.832031 30.261719 C 26.972656 31.085938 24.007812 31.398438 22.519531 31.398438 C 22.03125 31.398438 21.375 31.359375 20.617188 31.285156 C 20.617188 31.285156 20.617188 31.285156 20.605469 31.285156 C 20.597656 31.285156 20.597656 31.285156 20.585938 31.285156 C 20.578125 31.285156 20.578125 31.285156 20.570312 31.285156 C 20.351562 31.265625 20.128906 31.238281 19.902344 31.210938 C 19.882812 31.210938 19.867188 31.199219 19.847656 31.199219 C 18.027344 30.976562 15.777344 30.523438 13.742188 29.785156 C 12.441406 29.304688 11.316406 28.753906 10.386719 28.125 C 10.359375 28.105469 10.320312 28.085938 10.304688 28.070312 C 9.976562 27.84375 9.675781 27.609375 9.402344 27.367188 C 12.074219 33.421875 17.886719 35.664062 22.519531 35.664062 C 27.148438 35.664062 32.960938 33.429688 35.632812 27.375 C 35.625 27.375 35.625 27.382812 35.617188 27.382812 C 35.101562 27.804688 34.527344 28.21875 33.882812 28.585938 Z M 33.882812 28.585938 " fill-opacity="1" fill-rule="nonzero"/><path fill="#ffffff" d="M 32.523438 16.96875 C 30.84375 16.152344 28.789062 15.570312 26.53125 15.253906 L 24.46875 19.164062 C 25.414062 19.210938 26.363281 19.351562 27.300781 19.59375 C 31.125 20.578125 34.265625 23.070312 35.53125 26.0625 C 36 25.539062 36.375 24.957031 36.609375 24.308594 C 36.609375 24.300781 36.609375 24.300781 36.617188 24.289062 C 36.804688 23.773438 36.910156 23.222656 36.910156 22.621094 C 36.898438 19.707031 34.519531 17.945312 32.523438 16.96875 Z M 32.523438 16.96875 " fill-opacity="1" fill-rule="nonzero"/><path fill="#ffffff" d="M 23.664062 15.007812 L 21.367188 19.359375 C 22.011719 19.246094 22.667969 19.171875 23.34375 19.152344 L 25.472656 15.132812 C 24.871094 15.074219 24.273438 15.027344 23.664062 15.007812 Z M 23.664062 15.007812 " fill-opacity="1" fill-rule="nonzero"/><path fill="#ffffff" d="M 10.226562 26.773438 C 10.191406 26.484375 10.070312 26.203125 9.945312 25.914062 C 9.683594 25.292969 9.289062 24.355469 10.472656 23.679688 C 11.417969 23.148438 11.4375 22.914062 11.457031 22.667969 C 11.476562 22.398438 11.511719 21.976562 12.046875 21.523438 C 13.640625 20.203125 14.820312 19.632812 15.769531 19.726562 C 16.59375 19.808594 17.054688 20.351562 17.429688 20.8125 C 18.214844 20.316406 19.105469 19.921875 20.0625 19.648438 L 22.539062 14.980469 L 22.5 14.980469 C 18.675781 14.980469 15.113281 15.683594 12.476562 16.96875 C 10.480469 17.933594 8.101562 19.707031 8.101562 22.632812 C 8.101562 23.230469 8.203125 23.785156 8.390625 24.300781 C 8.738281 25.257812 9.382812 26.082031 10.226562 26.773438 Z M 10.226562 26.773438 " fill-opacity="1" fill-rule="nonzero"/><path fill="#ffffff" d="M 26.269531 10.078125 C 26.398438 9.835938 26.304688 9.523438 26.0625 9.402344 C 25.820312 9.273438 25.507812 9.367188 25.386719 9.609375 L 23.0625 13.988281 C 23.4375 13.996094 23.8125 14.007812 24.179688 14.023438 Z M 26.269531 10.078125 " fill-opacity="1" fill-rule="nonzero"/><path fill="#ffffff" d="M 27.027344 14.316406 L 29.183594 10.238281 C 29.316406 9.992188 29.222656 9.695312 28.976562 9.5625 C 28.734375 9.429688 28.425781 9.523438 28.304688 9.769531 L 25.976562 14.175781 C 26.324219 14.210938 26.679688 14.257812 27.027344 14.316406 Z M 27.027344 14.316406 " fill-opacity="1" fill-rule="nonzero"/><g fill="#00bf63" fill-opacity="1"><g transform="translate(18.386718, 39.949996)"><g><path d="M 0.734375 -1.421875 C 0.828125 -1.421875 0.90625 -1.40625 0.96875 -1.375 C 1.039062 -1.34375 1.097656 -1.289062 1.140625 -1.21875 C 1.179688 -1.15625 1.203125 -1.082031 1.203125 -1 C 1.203125 -0.90625 1.179688 -0.828125 1.140625 -0.765625 C 1.097656 -0.703125 1.039062 -0.648438 0.96875 -0.609375 C 0.90625 -0.578125 0.828125 -0.5625 0.734375 -0.5625 L 0.390625 -0.5625 L 0.390625 0 L 0.21875 0 L 0.21875 -1.421875 Z M 0.71875 -0.703125 C 0.914062 -0.703125 1.015625 -0.800781 1.015625 -1 C 1.015625 -1.1875 0.914062 -1.28125 0.71875 -1.28125 L 0.390625 -1.28125 L 0.390625 -0.703125 Z M 0.71875 -0.703125 "/></g></g></g><g fill="#00bf63" fill-opacity="1"><g transform="translate(19.683391, 39.949996)"><g><path d="M 0.1875 0 L 0.1875 -1.515625 L 0.34375 -1.515625 L 0.34375 -0.921875 L 0.375 -0.921875 C 0.445312 -1.035156 0.554688 -1.09375 0.703125 -1.09375 C 0.828125 -1.09375 0.914062 -1.0625 0.96875 -1 C 1.03125 -0.9375 1.0625 -0.832031 1.0625 -0.6875 L 1.0625 0 L 0.90625 0 L 0.90625 -0.6875 C 0.90625 -0.75 0.894531 -0.800781 0.875 -0.84375 C 0.863281 -0.882812 0.835938 -0.910156 0.796875 -0.921875 C 0.765625 -0.941406 0.722656 -0.953125 0.671875 -0.953125 C 0.578125 -0.953125 0.5 -0.921875 0.4375 -0.859375 C 0.375 -0.796875 0.34375 -0.691406 0.34375 -0.546875 L 0.34375 0 Z M 0.1875 0 "/></g></g></g><g fill="#00bf63" fill-opacity="1"><g transform="translate(20.91878, 39.949996)"><g><path d="M 0.625 0.015625 C 0.519531 0.015625 0.425781 -0.00390625 0.34375 -0.046875 C 0.269531 -0.0859375 0.210938 -0.148438 0.171875 -0.234375 C 0.140625 -0.316406 0.125 -0.414062 0.125 -0.53125 C 0.125 -0.65625 0.140625 -0.757812 0.171875 -0.84375 C 0.210938 -0.925781 0.269531 -0.988281 0.34375 -1.03125 C 0.425781 -1.070312 0.519531 -1.09375 0.625 -1.09375 C 0.71875 -1.09375 0.800781 -1.070312 0.875 -1.03125 C 0.957031 -0.988281 1.019531 -0.925781 1.0625 -0.84375 C 1.101562 -0.757812 1.125 -0.65625 1.125 -0.53125 C 1.125 -0.414062 1.101562 -0.316406 1.0625 -0.234375 C 1.019531 -0.148438 0.957031 -0.0859375 0.875 -0.046875 C 0.800781 -0.00390625 0.71875 0.015625 0.625 0.015625 Z M 0.625 -0.125 C 0.726562 -0.125 0.804688 -0.15625 0.859375 -0.21875 C 0.921875 -0.289062 0.953125 -0.394531 0.953125 -0.53125 C 0.953125 -0.675781 0.921875 -0.78125 0.859375 -0.84375 C 0.804688 -0.914062 0.726562 -0.953125 0.625 -0.953125 C 0.507812 -0.953125 0.421875 -0.914062 0.359375 -0.84375 C 0.304688 -0.78125 0.28125 -0.675781 0.28125 -0.53125 C 0.28125 -0.394531 0.304688 -0.289062 0.359375 -0.21875 C 0.421875 -0.15625 0.507812 -0.125 0.625 -0.125 Z M 0.625 -0.125 "/></g></g></g><g fill="#00bf63" fill-opacity="1"><g transform="translate(22.150279, 39.949996)"><g><path d="M 0.484375 0.015625 C 0.421875 0.015625 0.359375 0.0078125 0.296875 0 C 0.242188 -0.0195312 0.195312 -0.046875 0.15625 -0.078125 C 0.113281 -0.109375 0.0859375 -0.144531 0.078125 -0.1875 L 0.171875 -0.28125 L 0.1875 -0.28125 C 0.21875 -0.226562 0.257812 -0.1875 0.3125 -0.15625 C 0.363281 -0.132812 0.421875 -0.125 0.484375 -0.125 C 0.566406 -0.125 0.628906 -0.140625 0.671875 -0.171875 C 0.710938 -0.203125 0.734375 -0.242188 0.734375 -0.296875 C 0.734375 -0.335938 0.71875 -0.367188 0.6875 -0.390625 C 0.664062 -0.421875 0.628906 -0.445312 0.578125 -0.46875 L 0.390625 -0.515625 C 0.296875 -0.535156 0.222656 -0.570312 0.171875 -0.625 C 0.128906 -0.675781 0.109375 -0.738281 0.109375 -0.8125 C 0.109375 -0.863281 0.125 -0.910156 0.15625 -0.953125 C 0.1875 -1.003906 0.226562 -1.039062 0.28125 -1.0625 C 0.34375 -1.082031 0.410156 -1.09375 0.484375 -1.09375 C 0.585938 -1.09375 0.664062 -1.078125 0.71875 -1.046875 C 0.78125 -1.023438 0.828125 -0.988281 0.859375 -0.9375 L 0.765625 -0.859375 L 0.75 -0.859375 C 0.71875 -0.890625 0.679688 -0.914062 0.640625 -0.9375 C 0.597656 -0.957031 0.546875 -0.96875 0.484375 -0.96875 C 0.421875 -0.96875 0.367188 -0.953125 0.328125 -0.921875 C 0.285156 -0.898438 0.265625 -0.863281 0.265625 -0.8125 C 0.265625 -0.769531 0.273438 -0.734375 0.296875 -0.703125 C 0.328125 -0.679688 0.378906 -0.660156 0.453125 -0.640625 L 0.625 -0.609375 C 0.71875 -0.585938 0.785156 -0.550781 0.828125 -0.5 C 0.867188 -0.445312 0.890625 -0.378906 0.890625 -0.296875 C 0.890625 -0.234375 0.875 -0.175781 0.84375 -0.125 C 0.8125 -0.0820312 0.765625 -0.046875 0.703125 -0.015625 C 0.648438 0.00390625 0.578125 0.015625 0.484375 0.015625 Z M 0.484375 0.015625 "/></g></g></g><g fill="#00bf63" fill-opacity="1"><g transform="translate(23.142482, 39.949996)"><g><path d="M 0.625 0.015625 C 0.519531 0.015625 0.429688 -0.00390625 0.359375 -0.046875 C 0.285156 -0.0859375 0.226562 -0.148438 0.1875 -0.234375 C 0.144531 -0.316406 0.125 -0.414062 0.125 -0.53125 C 0.125 -0.65625 0.144531 -0.757812 0.1875 -0.84375 C 0.226562 -0.925781 0.285156 -0.988281 0.359375 -1.03125 C 0.429688 -1.070312 0.519531 -1.09375 0.625 -1.09375 C 0.738281 -1.09375 0.828125 -1.070312 0.890625 -1.03125 C 0.953125 -0.988281 1 -0.929688 1.03125 -0.859375 L 0.921875 -0.78125 L 0.90625 -0.78125 C 0.875 -0.84375 0.835938 -0.882812 0.796875 -0.90625 C 0.753906 -0.9375 0.695312 -0.953125 0.625 -0.953125 C 0.550781 -0.953125 0.488281 -0.9375 0.4375 -0.90625 C 0.394531 -0.875 0.359375 -0.828125 0.328125 -0.765625 C 0.296875 -0.703125 0.28125 -0.625 0.28125 -0.53125 C 0.28125 -0.445312 0.296875 -0.375 0.328125 -0.3125 C 0.359375 -0.25 0.394531 -0.203125 0.4375 -0.171875 C 0.488281 -0.140625 0.550781 -0.125 0.625 -0.125 C 0.695312 -0.125 0.753906 -0.140625 0.796875 -0.171875 C 0.847656 -0.203125 0.890625 -0.253906 0.921875 -0.328125 L 0.9375 -0.328125 L 1.046875 -0.265625 C 1.015625 -0.179688 0.960938 -0.113281 0.890625 -0.0625 C 0.816406 -0.0078125 0.726562 0.015625 0.625 0.015625 Z M 0.625 0.015625 "/></g></g></g><g fill="#00bf63" fill-opacity="1"><g transform="translate(24.248496, 39.949996)"><g><path d="M 0.4375 0.015625 C 0.332031 0.015625 0.25 -0.0078125 0.1875 -0.0625 C 0.132812 -0.113281 0.109375 -0.191406 0.109375 -0.296875 C 0.109375 -0.359375 0.117188 -0.410156 0.140625 -0.453125 C 0.171875 -0.503906 0.210938 -0.539062 0.265625 -0.5625 C 0.328125 -0.59375 0.398438 -0.617188 0.484375 -0.640625 C 0.566406 -0.648438 0.625 -0.660156 0.65625 -0.671875 C 0.695312 -0.691406 0.722656 -0.710938 0.734375 -0.734375 C 0.753906 -0.753906 0.765625 -0.78125 0.765625 -0.8125 C 0.765625 -0.851562 0.75 -0.882812 0.71875 -0.90625 C 0.6875 -0.9375 0.632812 -0.953125 0.5625 -0.953125 C 0.488281 -0.953125 0.425781 -0.9375 0.375 -0.90625 C 0.320312 -0.882812 0.273438 -0.847656 0.234375 -0.796875 L 0.21875 -0.796875 L 0.140625 -0.90625 C 0.179688 -0.96875 0.238281 -1.015625 0.3125 -1.046875 C 0.382812 -1.078125 0.46875 -1.09375 0.5625 -1.09375 C 0.6875 -1.09375 0.773438 -1.066406 0.828125 -1.015625 C 0.890625 -0.960938 0.921875 -0.882812 0.921875 -0.78125 L 0.921875 -0.21875 C 0.921875 -0.15625 0.945312 -0.125 1 -0.125 C 1.019531 -0.125 1.035156 -0.125 1.046875 -0.125 L 1.0625 -0.125 L 1.078125 -0.015625 C 1.066406 -0.00390625 1.050781 0 1.03125 0 C 1.019531 0.0078125 1.003906 0.015625 0.984375 0.015625 C 0.921875 0.015625 0.875 0 0.84375 -0.03125 C 0.8125 -0.0625 0.789062 -0.0976562 0.78125 -0.140625 L 0.765625 -0.15625 C 0.734375 -0.09375 0.691406 -0.046875 0.640625 -0.015625 C 0.585938 0.00390625 0.519531 0.015625 0.4375 0.015625 Z M 0.484375 -0.109375 C 0.535156 -0.109375 0.582031 -0.117188 0.625 -0.140625 C 0.675781 -0.171875 0.710938 -0.210938 0.734375 -0.265625 C 0.753906 -0.316406 0.765625 -0.375 0.765625 -0.4375 L 0.765625 -0.578125 L 0.75 -0.578125 C 0.726562 -0.554688 0.695312 -0.539062 0.65625 -0.53125 C 0.625 -0.519531 0.578125 -0.507812 0.515625 -0.5 C 0.453125 -0.5 0.398438 -0.488281 0.359375 -0.46875 C 0.328125 -0.445312 0.300781 -0.421875 0.28125 -0.390625 C 0.269531 -0.367188 0.265625 -0.335938 0.265625 -0.296875 C 0.265625 -0.234375 0.28125 -0.1875 0.3125 -0.15625 C 0.351562 -0.125 0.410156 -0.109375 0.484375 -0.109375 Z M 0.484375 -0.109375 "/></g></g></g><g fill="#00bf63" fill-opacity="1"><g transform="translate(25.358401, 39.949996)"><g><path d="M 0.1875 0 L 0.1875 -1.078125 L 0.34375 -1.078125 L 0.34375 -0.90625 L 0.359375 -0.90625 C 0.390625 -0.96875 0.429688 -1.015625 0.484375 -1.046875 C 0.546875 -1.078125 0.617188 -1.09375 0.703125 -1.09375 C 0.828125 -1.09375 0.914062 -1.0625 0.96875 -1 C 1.03125 -0.9375 1.0625 -0.832031 1.0625 -0.6875 L 1.0625 0 L 0.90625 0 L 0.90625 -0.6875 C 0.90625 -0.75 0.894531 -0.800781 0.875 -0.84375 C 0.863281 -0.882812 0.835938 -0.910156 0.796875 -0.921875 C 0.765625 -0.941406 0.722656 -0.953125 0.671875 -0.953125 C 0.578125 -0.953125 0.5 -0.921875 0.4375 -0.859375 C 0.375 -0.796875 0.34375 -0.691406 0.34375 -0.546875 L 0.34375 0 Z M 0.1875 0 "/></g></g></g></svg>