<svg xmlns="http://www.w3.org/2000/svg" xmlns:xlink="http://www.w3.org/1999/xlink" width="240" zoomAndPan="magnify" viewBox="0 0 180 30.000001" height="40" preserveAspectRatio="xMidYMid meet" version="1.0"><defs><g/><clipPath id="5f125a679c"><path d="M 2.902344 0 L 31.933594 0 L 31.933594 29.03125 L 2.902344 29.03125 Z M 2.902344 0 " clip-rule="nonzero"/></clipPath><clipPath id="978bcd3b93"><path d="M 161 7 L 177.097656 7 L 177.097656 24 L 161 24 Z M 161 7 " clip-rule="nonzero"/></clipPath></defs><g clip-path="url(#5f125a679c)"><path fill="#00bf63" d="M 31.933594 14.515625 C 31.933594 15.46875 31.84375 16.414062 31.65625 17.347656 C 31.46875 18.28125 31.195312 19.191406 30.832031 20.070312 C 30.464844 20.953125 30.019531 21.789062 29.488281 22.582031 C 28.960938 23.375 28.359375 24.105469 27.683594 24.78125 C 27.011719 25.453125 26.277344 26.054688 25.484375 26.585938 C 24.691406 27.117188 23.855469 27.5625 22.972656 27.925781 C 22.09375 28.292969 21.1875 28.566406 20.25 28.753906 C 19.316406 28.9375 18.371094 29.03125 17.417969 29.03125 C 16.464844 29.03125 15.523438 28.9375 14.585938 28.753906 C 13.652344 28.566406 12.746094 28.292969 11.863281 27.925781 C 10.984375 27.5625 10.148438 27.117188 9.355469 26.585938 C 8.5625 26.054688 7.828125 25.453125 7.15625 24.78125 C 6.480469 24.105469 5.878906 23.375 5.351562 22.582031 C 4.820312 21.789062 4.371094 20.953125 4.007812 20.070312 C 3.644531 19.191406 3.367188 18.28125 3.183594 17.347656 C 2.996094 16.414062 2.902344 15.46875 2.902344 14.515625 C 2.902344 13.5625 2.996094 12.617188 3.183594 11.683594 C 3.367188 10.75 3.644531 9.839844 4.007812 8.960938 C 4.371094 8.082031 4.820312 7.242188 5.351562 6.453125 C 5.878906 5.660156 6.480469 4.925781 7.15625 4.25 C 7.828125 3.578125 8.5625 2.976562 9.355469 2.445312 C 10.148438 1.917969 10.984375 1.46875 11.863281 1.105469 C 12.746094 0.738281 13.652344 0.464844 14.585938 0.277344 C 15.523438 0.09375 16.464844 0 17.417969 0 C 18.371094 0 19.316406 0.09375 20.25 0.277344 C 21.1875 0.464844 22.09375 0.738281 22.972656 1.105469 C 23.855469 1.46875 24.691406 1.917969 25.484375 2.445312 C 26.277344 2.976562 27.011719 3.578125 27.683594 4.25 C 28.359375 4.925781 28.960938 5.660156 29.488281 6.453125 C 30.019531 7.242188 30.464844 8.082031 30.832031 8.960938 C 31.195312 9.839844 31.46875 10.75 31.65625 11.683594 C 31.84375 12.617188 31.933594 13.5625 31.933594 14.515625 Z M 31.933594 14.515625 " fill-opacity="1" fill-rule="nonzero"/></g><path fill="#ffffff" d="M 25.3125 17.292969 C 24.648438 15.449219 22.730469 13.882812 20.351562 13.269531 C 19.640625 13.089844 18.914062 12.996094 18.199219 12.996094 C 18.1875 12.996094 18.167969 13.003906 18.15625 13.003906 C 18.144531 13.003906 18.132812 13.003906 18.113281 13.003906 C 16.886719 13.015625 15.714844 13.300781 14.757812 13.832031 C 15.265625 13.742188 15.464844 13.917969 15.5625 14.171875 C 16.964844 13.558594 18.660156 13.425781 20.191406 13.816406 C 22.113281 14.308594 24.207031 15.675781 24.796875 17.671875 C 24.980469 17.550781 25.148438 17.425781 25.3125 17.292969 Z M 25.3125 17.292969 " fill-opacity="1" fill-rule="nonzero"/><path fill="#ffffff" d="M 24.21875 18.011719 C 23.765625 16.179688 21.761719 14.878906 20.027344 14.4375 C 18.628906 14.082031 17.070312 14.203125 15.796875 14.769531 C 15.863281 14.847656 15.960938 14.921875 16.105469 15.007812 C 16.167969 15.035156 16.226562 15.097656 16.292969 15.167969 C 17.351562 14.746094 18.671875 14.679688 19.863281 14.980469 C 20.921875 15.253906 21.890625 15.773438 22.585938 16.453125 C 23.152344 17.007812 23.523438 17.648438 23.648438 18.296875 C 23.84375 18.207031 24.035156 18.109375 24.21875 18.011719 Z M 24.21875 18.011719 " fill-opacity="1" fill-rule="nonzero"/><path fill="#ffffff" d="M 23.03125 18.542969 C 22.867188 17.285156 21.515625 16.070312 19.699219 15.605469 C 18.691406 15.34375 17.589844 15.386719 16.675781 15.707031 C 16.742188 15.824219 16.789062 15.929688 16.808594 15.996094 C 16.816406 16.011719 16.820312 16.039062 16.84375 16.203125 C 17.363281 15.859375 18.042969 15.738281 18.78125 15.863281 C 19.519531 15.996094 20.269531 16.367188 20.902344 16.910156 C 21.507812 17.429688 21.972656 18.078125 22.265625 18.796875 C 22.523438 18.726562 22.777344 18.640625 23.03125 18.542969 Z M 23.03125 18.542969 " fill-opacity="1" fill-rule="nonzero"/><path fill="#ffffff" d="M 15.550781 19.453125 C 15.636719 19.300781 15.757812 19.160156 15.917969 19.027344 C 15.925781 19.023438 15.925781 19.023438 15.929688 19.015625 C 16.046875 18.925781 16.183594 18.835938 16.34375 18.742188 C 16.410156 18.707031 16.457031 18.648438 16.492188 18.570312 C 16.457031 18.207031 16.222656 16.367188 16.183594 16.179688 C 16.160156 16.101562 16.046875 15.90625 15.9375 15.757812 C 15.929688 15.75 15.925781 15.742188 15.925781 15.738281 C 15.871094 15.660156 15.816406 15.59375 15.78125 15.570312 C 15.289062 15.296875 15.113281 14.976562 15.035156 14.722656 L 15.035156 14.714844 C 15.011719 14.632812 14.992188 14.558594 14.980469 14.496094 C 14.980469 14.484375 14.976562 14.46875 14.976562 14.457031 C 14.945312 14.457031 14.902344 14.460938 14.835938 14.472656 C 14.390625 14.566406 14.085938 14.339844 13.863281 14.097656 C 13.855469 14.085938 13.84375 14.082031 13.839844 14.070312 C 13.777344 14.003906 13.722656 13.933594 13.675781 13.867188 C 13.445312 13.578125 13.28125 13.402344 13.023438 13.371094 C 12.605469 13.332031 11.957031 13.667969 11.097656 14.390625 C 10.960938 14.503906 10.960938 14.546875 10.949219 14.679688 C 10.917969 15.035156 10.828125 15.367188 9.984375 15.839844 C 9.738281 15.980469 9.738281 16.023438 9.925781 16.464844 C 10.058594 16.785156 10.238281 17.214844 10.136719 17.722656 C 11.703125 18.726562 13.90625 19.226562 15.550781 19.453125 Z M 15.472656 16.855469 C 15.648438 16.839844 15.808594 16.964844 15.828125 17.140625 C 15.847656 17.316406 15.71875 17.480469 15.542969 17.496094 C 15.40625 17.515625 15.179688 17.566406 14.992188 17.648438 C 14.804688 17.734375 14.648438 17.855469 14.648438 18 C 14.648438 18.175781 14.503906 18.320312 14.324219 18.320312 C 14.140625 18.320312 14.003906 18.175781 14.003906 17.992188 C 14.003906 17.226562 14.925781 16.917969 15.472656 16.855469 Z M 13.574219 16.746094 C 13.589844 16.921875 13.464844 17.085938 13.289062 17.105469 C 13.011719 17.136719 12.394531 17.308594 12.394531 17.613281 C 12.394531 17.789062 12.246094 17.933594 12.066406 17.933594 C 11.886719 17.933594 11.746094 17.789062 11.746094 17.605469 C 11.753906 16.832031 12.675781 16.523438 13.222656 16.464844 C 13.390625 16.445312 13.554688 16.574219 13.574219 16.746094 Z M 12.992188 14.351562 C 13.167969 14.335938 13.332031 14.460938 13.347656 14.636719 C 13.367188 14.8125 13.238281 14.976562 13.066406 14.992188 C 12.785156 15.023438 12.167969 15.199219 12.167969 15.503906 C 12.167969 15.675781 12.023438 15.824219 11.84375 15.824219 C 11.660156 15.824219 11.523438 15.675781 11.523438 15.496094 C 11.527344 14.726562 12.453125 14.417969 12.992188 14.351562 Z M 12.992188 14.351562 " fill-opacity="1" fill-rule="nonzero"/><path fill="#ffffff" d="M 17.417969 19.601562 C 18.179688 19.601562 19.894531 19.453125 21.640625 18.984375 C 21.03125 17.539062 19.710938 16.695312 18.671875 16.507812 C 18.246094 16.433594 17.480469 16.398438 16.953125 16.960938 C 16.964844 17.074219 16.984375 17.195312 17.003906 17.339844 C 17.164062 18.597656 17.160156 18.617188 17.136719 18.691406 C 17.054688 18.960938 16.898438 19.171875 16.667969 19.300781 C 16.597656 19.34375 16.53125 19.386719 16.476562 19.421875 C 16.480469 19.464844 16.488281 19.511719 16.492188 19.554688 C 16.867188 19.589844 17.191406 19.601562 17.417969 19.601562 Z M 17.417969 19.601562 " fill-opacity="1" fill-rule="nonzero"/><path fill="#ffffff" d="M 24.761719 18.441406 C 24.761719 18.449219 24.761719 18.449219 24.761719 18.441406 C 24.75 18.449219 24.738281 18.460938 24.726562 18.464844 C 24.355469 18.675781 23.953125 18.871094 23.511719 19.050781 C 23.511719 19.050781 23.503906 19.050781 23.503906 19.058594 C 23.363281 19.113281 23.226562 19.167969 23.085938 19.222656 C 22.796875 19.332031 22.492188 19.425781 22.191406 19.511719 L 22.183594 19.511719 C 22.183594 19.511719 22.179688 19.511719 22.179688 19.519531 C 22.171875 19.519531 22.160156 19.523438 22.15625 19.523438 L 22.148438 19.523438 C 20.304688 20.054688 18.394531 20.257812 17.429688 20.257812 C 17.117188 20.257812 16.695312 20.230469 16.203125 20.183594 C 16.203125 20.183594 16.203125 20.183594 16.199219 20.183594 C 16.191406 20.183594 16.191406 20.183594 16.183594 20.183594 C 16.179688 20.183594 16.179688 20.183594 16.171875 20.183594 C 16.035156 20.171875 15.890625 20.152344 15.742188 20.136719 C 15.730469 20.136719 15.71875 20.128906 15.707031 20.128906 C 14.535156 19.984375 13.082031 19.695312 11.769531 19.214844 C 10.929688 18.90625 10.203125 18.550781 9.605469 18.144531 C 9.585938 18.132812 9.5625 18.121094 9.550781 18.109375 C 9.339844 17.964844 9.144531 17.8125 8.96875 17.65625 C 10.695312 21.5625 14.445312 23.007812 17.429688 23.007812 C 20.417969 23.007812 24.167969 21.570312 25.894531 17.660156 C 25.886719 17.660156 25.886719 17.667969 25.882812 17.667969 C 25.546875 17.941406 25.179688 18.207031 24.761719 18.441406 Z M 24.761719 18.441406 " fill-opacity="1" fill-rule="nonzero"/><path fill="#ffffff" d="M 23.886719 10.949219 C 22.800781 10.421875 21.476562 10.046875 20.019531 9.839844 L 18.691406 12.363281 C 19.300781 12.394531 19.910156 12.484375 20.515625 12.640625 C 22.984375 13.277344 25.011719 14.886719 25.828125 16.816406 C 26.128906 16.476562 26.371094 16.101562 26.523438 15.683594 C 26.523438 15.675781 26.523438 15.675781 26.527344 15.671875 C 26.648438 15.339844 26.714844 14.980469 26.714844 14.59375 C 26.710938 12.714844 25.171875 11.578125 23.886719 10.949219 Z M 23.886719 10.949219 " fill-opacity="1" fill-rule="nonzero"/><path fill="#ffffff" d="M 18.167969 9.683594 L 16.6875 12.488281 C 17.105469 12.417969 17.527344 12.367188 17.964844 12.355469 L 19.335938 9.761719 C 18.949219 9.726562 18.5625 9.695312 18.167969 9.683594 Z M 18.167969 9.683594 " fill-opacity="1" fill-rule="nonzero"/><path fill="#ffffff" d="M 9.503906 17.273438 C 9.476562 17.085938 9.398438 16.90625 9.320312 16.71875 C 9.152344 16.320312 8.898438 15.714844 9.660156 15.277344 C 10.269531 14.933594 10.28125 14.78125 10.292969 14.625 C 10.304688 14.449219 10.332031 14.175781 10.675781 13.886719 C 11.703125 13.035156 12.464844 12.664062 13.078125 12.726562 C 13.609375 12.78125 13.90625 13.132812 14.148438 13.425781 C 14.65625 13.105469 15.230469 12.851562 15.847656 12.675781 L 17.445312 9.664062 L 17.417969 9.664062 C 14.953125 9.664062 12.652344 10.117188 10.953125 10.949219 C 9.664062 11.570312 8.128906 12.714844 8.128906 14.601562 C 8.128906 14.988281 8.195312 15.34375 8.316406 15.675781 C 8.539062 16.292969 8.957031 16.828125 9.503906 17.273438 Z M 9.503906 17.273438 " fill-opacity="1" fill-rule="nonzero"/><path fill="#ffffff" d="M 19.851562 6.503906 C 19.933594 6.34375 19.875 6.144531 19.71875 6.066406 C 19.558594 5.980469 19.359375 6.042969 19.28125 6.199219 L 17.78125 9.023438 C 18.023438 9.03125 18.265625 9.035156 18.503906 9.046875 Z M 19.851562 6.503906 " fill-opacity="1" fill-rule="nonzero"/><path fill="#ffffff" d="M 20.339844 9.234375 L 21.730469 6.605469 C 21.816406 6.449219 21.757812 6.253906 21.597656 6.167969 C 21.441406 6.085938 21.242188 6.144531 21.164062 6.300781 L 19.664062 9.144531 C 19.886719 9.167969 20.117188 9.199219 20.339844 9.234375 Z M 20.339844 9.234375 " fill-opacity="1" fill-rule="nonzero"/><g fill="#00bf63" fill-opacity="1"><g transform="translate(52.564261, 23.056441)"><g><path d="M 10.828125 -19.640625 C 12.566406 -19.640625 14.078125 -19.347656 15.359375 -18.765625 C 16.640625 -18.191406 17.625 -17.367188 18.3125 -16.296875 C 19.007812 -15.234375 19.359375 -13.972656 19.359375 -12.515625 C 19.359375 -11.078125 19.007812 -9.816406 18.3125 -8.734375 C 17.625 -7.660156 16.640625 -6.835938 15.359375 -6.265625 C 14.078125 -5.703125 12.566406 -5.421875 10.828125 -5.421875 L 6.875 -5.421875 L 6.875 0 L 2.328125 0 L 2.328125 -19.640625 Z M 10.578125 -9.125 C 11.941406 -9.125 12.976562 -9.414062 13.6875 -10 C 14.40625 -10.59375 14.765625 -11.429688 14.765625 -12.515625 C 14.765625 -13.617188 14.40625 -14.460938 13.6875 -15.046875 C 12.976562 -15.640625 11.941406 -15.9375 10.578125 -15.9375 L 6.875 -15.9375 L 6.875 -9.125 Z M 10.578125 -9.125 "/></g></g></g><g fill="#00bf63" fill-opacity="1"><g transform="translate(73.101949, 23.056441)"><g><path d="M 11.203125 -15.328125 C 13.066406 -15.328125 14.570312 -14.765625 15.71875 -13.640625 C 16.875 -12.515625 17.453125 -10.847656 17.453125 -8.640625 L 17.453125 0 L 13.078125 0 L 13.078125 -7.96875 C 13.078125 -9.164062 12.8125 -10.054688 12.28125 -10.640625 C 11.757812 -11.234375 11.003906 -11.53125 10.015625 -11.53125 C 8.910156 -11.53125 8.03125 -11.1875 7.375 -10.5 C 6.71875 -9.820312 6.390625 -8.8125 6.390625 -7.46875 L 6.390625 0 L 2.015625 0 L 2.015625 -20.828125 L 6.390625 -20.828125 L 6.390625 -13.53125 C 6.972656 -14.101562 7.675781 -14.546875 8.5 -14.859375 C 9.320312 -15.171875 10.222656 -15.328125 11.203125 -15.328125 Z M 11.203125 -15.328125 "/></g></g></g><g fill="#00bf63" fill-opacity="1"><g transform="translate(92.489296, 23.056441)"><g><path d="M 9.203125 0.21875 C 7.609375 0.21875 6.179688 -0.109375 4.921875 -0.765625 C 3.660156 -1.429688 2.671875 -2.351562 1.953125 -3.53125 C 1.242188 -4.707031 0.890625 -6.046875 0.890625 -7.546875 C 0.890625 -9.046875 1.242188 -10.382812 1.953125 -11.5625 C 2.671875 -12.738281 3.660156 -13.660156 4.921875 -14.328125 C 6.179688 -14.992188 7.609375 -15.328125 9.203125 -15.328125 C 10.796875 -15.328125 12.21875 -14.992188 13.46875 -14.328125 C 14.71875 -13.660156 15.695312 -12.738281 16.40625 -11.5625 C 17.125 -10.382812 17.484375 -9.046875 17.484375 -7.546875 C 17.484375 -6.046875 17.125 -4.707031 16.40625 -3.53125 C 15.695312 -2.351562 14.71875 -1.429688 13.46875 -0.765625 C 12.21875 -0.109375 10.796875 0.21875 9.203125 0.21875 Z M 9.203125 -3.375 C 10.328125 -3.375 11.25 -3.75 11.96875 -4.5 C 12.6875 -5.257812 13.046875 -6.273438 13.046875 -7.546875 C 13.046875 -8.816406 12.6875 -9.832031 11.96875 -10.59375 C 11.25 -11.351562 10.328125 -11.734375 9.203125 -11.734375 C 8.078125 -11.734375 7.148438 -11.351562 6.421875 -10.59375 C 5.691406 -9.832031 5.328125 -8.816406 5.328125 -7.546875 C 5.328125 -6.273438 5.691406 -5.257812 6.421875 -4.5 C 7.148438 -3.75 8.078125 -3.375 9.203125 -3.375 Z M 9.203125 -3.375 "/></g></g></g><g fill="#00bf63" fill-opacity="1"><g transform="translate(110.866599, 23.056441)"><g><path d="M 7.09375 0.21875 C 5.84375 0.21875 4.617188 0.0664062 3.421875 -0.234375 C 2.222656 -0.546875 1.269531 -0.9375 0.5625 -1.40625 L 2.015625 -4.546875 C 2.691406 -4.117188 3.503906 -3.769531 4.453125 -3.5 C 5.410156 -3.226562 6.347656 -3.09375 7.265625 -3.09375 C 9.117188 -3.09375 10.046875 -3.550781 10.046875 -4.46875 C 10.046875 -4.894531 9.789062 -5.203125 9.28125 -5.390625 C 8.78125 -5.578125 8.003906 -5.734375 6.953125 -5.859375 C 5.722656 -6.046875 4.703125 -6.257812 3.890625 -6.5 C 3.085938 -6.75 2.390625 -7.179688 1.796875 -7.796875 C 1.210938 -8.421875 0.921875 -9.300781 0.921875 -10.4375 C 0.921875 -11.394531 1.195312 -12.242188 1.75 -12.984375 C 2.300781 -13.722656 3.101562 -14.296875 4.15625 -14.703125 C 5.21875 -15.117188 6.46875 -15.328125 7.90625 -15.328125 C 8.976562 -15.328125 10.039062 -15.207031 11.09375 -14.96875 C 12.15625 -14.738281 13.03125 -14.414062 13.71875 -14 L 12.265625 -10.890625 C 10.929688 -11.640625 9.476562 -12.015625 7.90625 -12.015625 C 6.976562 -12.015625 6.28125 -11.878906 5.8125 -11.609375 C 5.34375 -11.347656 5.109375 -11.015625 5.109375 -10.609375 C 5.109375 -10.140625 5.359375 -9.8125 5.859375 -9.625 C 6.367188 -9.4375 7.175781 -9.257812 8.28125 -9.09375 C 9.507812 -8.882812 10.515625 -8.660156 11.296875 -8.421875 C 12.085938 -8.191406 12.773438 -7.769531 13.359375 -7.15625 C 13.941406 -6.539062 14.234375 -5.679688 14.234375 -4.578125 C 14.234375 -3.640625 13.953125 -2.804688 13.390625 -2.078125 C 12.828125 -1.347656 12.003906 -0.78125 10.921875 -0.375 C 9.847656 0.0195312 8.570312 0.21875 7.09375 0.21875 Z M 7.09375 0.21875 "/></g></g></g><g fill="#00bf63" fill-opacity="1"><g transform="translate(125.764835, 23.056441)"><g><path d="M 9.3125 0.21875 C 7.707031 0.21875 6.265625 -0.109375 4.984375 -0.765625 C 3.703125 -1.429688 2.695312 -2.351562 1.96875 -3.53125 C 1.25 -4.707031 0.890625 -6.046875 0.890625 -7.546875 C 0.890625 -9.046875 1.25 -10.382812 1.96875 -11.5625 C 2.695312 -12.738281 3.703125 -13.660156 4.984375 -14.328125 C 6.265625 -14.992188 7.707031 -15.328125 9.3125 -15.328125 C 10.90625 -15.328125 12.296875 -14.992188 13.484375 -14.328125 C 14.671875 -13.660156 15.535156 -12.710938 16.078125 -11.484375 L 12.6875 -9.65625 C 11.894531 -11.039062 10.757812 -11.734375 9.28125 -11.734375 C 8.144531 -11.734375 7.203125 -11.359375 6.453125 -10.609375 C 5.703125 -9.859375 5.328125 -8.835938 5.328125 -7.546875 C 5.328125 -6.253906 5.703125 -5.234375 6.453125 -4.484375 C 7.203125 -3.742188 8.144531 -3.375 9.28125 -3.375 C 10.78125 -3.375 11.914062 -4.0625 12.6875 -5.4375 L 16.078125 -3.59375 C 15.535156 -2.394531 14.671875 -1.457031 13.484375 -0.78125 C 12.296875 -0.113281 10.90625 0.21875 9.3125 0.21875 Z M 9.3125 0.21875 "/></g></g></g><g fill="#00bf63" fill-opacity="1"><g transform="translate(142.346493, 23.056441)"><g><path d="M 8.109375 -15.328125 C 10.453125 -15.328125 12.25 -14.769531 13.5 -13.65625 C 14.75 -12.539062 15.375 -10.859375 15.375 -8.609375 L 15.375 0 L 11.28125 0 L 11.28125 -1.875 C 10.457031 -0.476562 8.921875 0.21875 6.671875 0.21875 C 5.515625 0.21875 4.507812 0.0234375 3.65625 -0.359375 C 2.8125 -0.753906 2.160156 -1.296875 1.703125 -1.984375 C 1.253906 -2.679688 1.03125 -3.46875 1.03125 -4.34375 C 1.03125 -5.75 1.554688 -6.851562 2.609375 -7.65625 C 3.671875 -8.46875 5.304688 -8.875 7.515625 -8.875 L 11 -8.875 C 11 -9.820312 10.707031 -10.550781 10.125 -11.0625 C 9.550781 -11.582031 8.679688 -11.84375 7.515625 -11.84375 C 6.710938 -11.84375 5.921875 -11.710938 5.140625 -11.453125 C 4.367188 -11.203125 3.710938 -10.863281 3.171875 -10.4375 L 1.59375 -13.5 C 2.414062 -14.082031 3.398438 -14.53125 4.546875 -14.84375 C 5.703125 -15.164062 6.890625 -15.328125 8.109375 -15.328125 Z M 7.765625 -2.71875 C 8.515625 -2.71875 9.179688 -2.890625 9.765625 -3.234375 C 10.347656 -3.585938 10.757812 -4.097656 11 -4.765625 L 11 -6.3125 L 8 -6.3125 C 6.195312 -6.3125 5.296875 -5.722656 5.296875 -4.546875 C 5.296875 -3.984375 5.515625 -3.535156 5.953125 -3.203125 C 6.398438 -2.878906 7.003906 -2.71875 7.765625 -2.71875 Z M 7.765625 -2.71875 "/></g></g></g><g clip-path="url(#978bcd3b93)"><g fill="#00bf63" fill-opacity="1"><g transform="translate(159.657623, 23.056441)"><g><path d="M 11.203125 -15.328125 C 13.066406 -15.328125 14.570312 -14.765625 15.71875 -13.640625 C 16.875 -12.515625 17.453125 -10.847656 17.453125 -8.640625 L 17.453125 0 L 13.078125 0 L 13.078125 -7.96875 C 13.078125 -9.164062 12.8125 -10.054688 12.28125 -10.640625 C 11.757812 -11.234375 11.003906 -11.53125 10.015625 -11.53125 C 8.910156 -11.53125 8.03125 -11.1875 7.375 -10.5 C 6.71875 -9.820312 6.390625 -8.8125 6.390625 -7.46875 L 6.390625 0 L 2.015625 0 L 2.015625 -15.09375 L 6.203125 -15.09375 L 6.203125 -13.328125 C 6.785156 -13.960938 7.503906 -14.453125 8.359375 -14.796875 C 9.222656 -15.148438 10.171875 -15.328125 11.203125 -15.328125 Z M 11.203125 -15.328125 "/></g></g></g></g></svg>